<?xml version="1.0" encoding="utf-8"?>
<!-- Generator: Adobe Illustrator 23.0.0, SVG Export Plug-In . SVG Version: 6.00 Build 0)  -->
<svg version="1.1" id="Layer_1" xmlns="http://www.w3.org/2000/svg" xmlns:xlink="http://www.w3.org/1999/xlink" x="0px" y="0px"
	 viewBox="0 0 348 112" style="enable-background:new 0 0 348 112;" xml:space="preserve">
<style type="text/css">
	.st0{enable-background:new    ;}
	.st1{fill:#FFFFFF;}
	.st2{fill:none;}
	.st3{fill:#548F6F;}
</style>
<g class="st0">
	<path class="st1" d="M47.65,66.83c4.59-5.87,9.16-13.99,8.48-17.81c-0.23-1.32-1.7-1.67-2.94-1.54
		c-7.69,0.79-18.86,8.67-26.34,18.89C18.88,77.52,14.15,89.74,16.7,97.31c1.11,3.37,4.43,4.94,8.89,4.15
		c9.68-1.71,24.81-14.54,37.86-31.98c0.57-0.76,0.68,0.16,0.46,0.48c-7.03,10.89-22.25,32.51-33.11,34.43
		c-6.14,1.08-17.94-0.49-20.26-9.36c-1.83-7.18,1.9-17.96,8.58-27.34C26.79,57,38.46,47.4,47.87,45.74
		c8.5-1.5,11.97,3.28,12.59,5.47c0.94,3.21-4.08,11.13-12.4,16.34C47.61,67.96,46.92,67.75,47.65,66.83z"/>
	<path class="st1" d="M61.57,84.15c-0.58,1.74-0.67,2.84-0.5,3.04c0.37,0.22-0.01,0.47-0.53,0.47c-0.52,0-4.5-2.11-4.28-3.56
		c0.13-0.87,0.54-2.02,1.17-3.49l1.75-3.92c1.38-3.06,3.76-8.16,4.6-10.09c0.82-1.97,1.16-3.81,0.26-4.08
		c0.08-0.06,0.96-0.4,2.32,0.15c2.43,1.02,3.35,2.5,3.42,3.15c0.1,0.55-1.41,3.44-3.18,6.94c0.91-1.47,1.92-2.92,3.02-4.38
		c2.18-2.78,6.74-8.31,8.79-9.14c0.92-0.35,2.89,1.79,3.14,3.99c0.06,0.6,0.14,2.41-0.39,3.11c-0.03-0.46-0.3-0.93-0.65-1.29
		c-0.45-0.44-1.49-0.72-2.69-0.37c-2.72,0.81-5.34,2.39-8.16,5.8C65.55,75.39,62.82,80.37,61.57,84.15z"/>
	<path class="st1" d="M86.62,69.66c-2.77,5.03-5.25,10.11-5.09,11.02c0.03,0.18,0.17,0.44,0.44,0.39
		c1.23-0.22,7.82-7.24,13.26-14.66c1.47-2.04,2.77-3.68,4.07-5.87c0.65-1.1,1.33-2.53,1-3.92c-0.1-0.31-0.23-0.52-0.48-0.62
		c-0.04,0.01,0.93-0.3,2.27,0.4c2.02,1.1,3.24,2.43,3.31,3.07c0.02,0.09-0.01,0.19-0.04,0.29c0,0-2.21,4.19-3.61,6.92
		c-2.4,4.74-5.6,11.58-8.12,18.02c3.94-6.88,11.97-17.72,14.05-20.24c0.27-0.33,0.75,0.29,0.64,0.45
		c-1.29,1.73-8.72,13.02-13.44,21.35c-2.1,3.75-5.12,9.25-6.13,13.36c-0.42,1.62-0.46,2.99-0.31,3.8c0.06,0.36,0.2,0.62,0.37,0.78
		c0.11,0.64-6.08-1.22-5.46-4.62c1.08-5.58,6.51-18.63,9.3-25.17c0.69-1.67,1.81-4.12,3.02-6.53c-4.27,6.61-9.63,14.21-12.03,16.04
		c-0.13,0.07-0.17,0.08-0.22,0.09c-1.86,0.33-6.19-2.7-6.59-4.98c-0.3-1.68,3.85-9.02,7.65-16.16c0.57-1.04,1.12-2.45,1.17-3.21
		c0.02-0.66-0.43-0.86-0.9-0.87c-0.04,0.01,0.94-0.54,2.24,0.21c2.56,1.52,3.45,3.09,3.52,3.74c0.02,0.09-0.01,0.19-0.04,0.29
		C90.46,63.03,87.97,67.22,86.62,69.66z"/>
	<path class="st1" d="M131.4,59.94c-0.52,2.11-1.55,4.49-2.98,6.76c-2.97,4.7-8.42,11-14.46,12.06c-1.5,0.26-4.88-0.31-6.45-1.77
		c-3.5,8.87-8.95,22.86-6.37,25.03c0.11,0.64-6.55-1.28-5.93-4.67c1.14-6.01,5.5-17.7,8.32-24.06c2.05-4.58,5.7-12.07,7.01-15.01
		c0.91-2.03,1.16-3.81,0.27-4.08c-0.04,0.01,0.69-0.36,2.06,0.25c1.26,0.53,2.07,1.13,2.88,1.98c2.34-2.43,5.05-4.08,8-4.6
		c3.36-0.59,7.51,1.68,7.95,4.13c0.15,0.86,0.09,1.86-0.09,2.97c1.87-0.56,4.58-1.37,5.93-1.7c0.27-0.05,0.58,0.65,0.18,0.76
		C135.96,58.47,132.85,59.45,131.4,59.94z M110.45,76.47c4.5-0.79,10.28-7.62,13.96-13.85c-5.78,2.28-15.95,10.55-15.45,13.41
		C109.07,76.62,109.91,76.57,110.45,76.47z M124.65,61.03l0.75-0.27c1.2-2.51,1.81-4.63,1.53-6.22c-0.15-0.86-0.72-1.42-1.86-1.22
		c-1.73,0.3-4.41,2.37-6.67,4.69c-2.42,2.49-4.5,5.57-7.15,10.49C115.96,64.63,120.09,62.82,124.65,61.03z"/>
	<path class="st1" d="M135.66,71.13c0.02,0.14,0.09,0.22,0.27,0.19c0.95-0.17,7.54-7.75,12.55-14.68c0.26-0.37,0.68-0.12,0.51,0.24
		c-0.77,1.5-2.51,4.38-4.96,8.04c-2.45,3.67-6.97,9.66-8.33,9.91c-0.64,0.11-1.98-0.31-2.8-0.73c-1.39-0.74-2.53-1.62-2.64-2.49
		c-0.04-0.23,0-0.52,0.05-0.76c0.49-2.57,3.38-9.27,6.34-15.37l5.55-11.57c-2.74,1.19-4.36,2.41-4.73,2.94
		c-0.44,0.69,1.03,1.32,1.88,1.59c0.2,0.06,0.08,0.22-0.05,0.24c-2.17,0.19-3.92-0.67-4.13-1.1c-1.1-1.96,0.93-4.57,1.61-4.97
		c1.39-0.9,3.89-1.86,7.29-2.79c0.7-1.62,1.25-3.03,1.62-4.08c0.67-2.04,0.82-3.61-0.07-3.88c-0.05,0.01,1.06-0.37,2.34,0.24
		c2.1,0.99,3.37,2.64,3.54,3.59c0.02,0.09-0.01,0.19-0.04,0.29l-1.17,2.41c5.82-1.03,15.79-1.38,18.11-0.71
		c0.15,0.02,0.02,0.14-0.02,0.14c-2.95,0.29-8.09,1.19-13.15,2.27c-0.99,0.22-3.66,0.79-6.52,1.57l-6.1,12.74
		C142.4,54.86,135.33,69.23,135.66,71.13z"/>
	<path class="st1" d="M156.37,48.74c1.01-1.44,3.6-3.49,5.65-3.85c3.91-0.69,7.05,1.71,8.07,4.81c3.26-0.39,6.42-1.08,7.08-1.34
		c0.53-0.19,1.19,0.12-0.14,0.82c-0.77,0.42-3.67,1.49-6.89,2.11c0.55,4.97-7.84,18.82-15.7,20.2c-4.54,0.8-8.98-0.67-9.66-4.53
		C143.8,61.45,150.75,51.46,156.37,48.74z M150.97,69.98c4-0.71,12.18-10.96,14.36-17.95c-2.12,0.23-4.08-0.03-5.36-0.37
		c-6.46,3.48-10.96,13.84-10.4,17.02C149.72,69.55,149.88,70.18,150.97,69.98z M163.42,46.18c-1.36,0.52-2.1,1.64-2.12,2.58
		c0.02,1.17,1.86,1.5,4.56,1.4c0.17-0.87,0.18-1.39,0.05-2.12C165.61,46.41,164.82,45.65,163.42,46.18z"/>
	<path class="st1" d="M204.03,75.07c-0.33,1.61-0.44,3.08-0.03,3.57l0.18,0.21c0.07,0.41-4.28-0.37-4.72-2.87
		c-0.32,0.06-0.64,0.07-0.92,0.12c-4.36,0.53-12.63-1.43-14.39-5.57c-3.07-7.29,10.51-17.46,26.93-23.49c1.1-2.02,2.2-4,3.13-5.61
		c-0.62-0.31-1.33-0.89-1.39-1.25c-0.08-0.45,0.9-0.72,2.87-1.26c4.44-7.53,8.9-14.65,8.65-17.41c-0.08-0.74-0.28-1.08-0.63-1.2
		c-0.05-0.04,0.11-0.16,0.26-0.14c0.33-0.01,1.09,0.09,2.3,0.81c2.36,1.41,3.39,2.78,3.4,3.57c0,0.56-1.63,3.8-4.21,8.29
		c-1,1.77-1.91,3.24-2.82,4.72c7.21-2.72,15.65-10.12,16.22-14.86c0.59-4.89-4.98-6.2-9.05-5.9c-7.59,0.54-15.85,3.97-22.33,8.62
		c-3.45,2.48-8.31,7.09-7.77,10.18c0.19,1.09,1.5,1.85,4.49,2.07c0.95,0.07,0.83,0.46,0.28,0.51c-2.25,0.26-3.94,0.23-5.72-0.54
		c-1.56-0.62-3.02-2-3.27-3.69c-0.7-4.75,4.26-10.13,11.81-14.08c7.25-3.81,16.49-6.19,23.69-5.49c8.78,0.89,12.79,8.24,12.58,10.76
		c-0.35,5.17-7.6,9.54-14.46,12.39c4.36,0.03,9.71,0.87,12.24,3.75c2.44-0.01,5.41,0.12,7.82,0.5c0.53,0.09,0.69,0.44-0.12,0.4
		c-2.65-0.14-4.76-0.14-7.02,0.07c0.38,0.54,0.73,1.23,0.89,1.86c1.4,6.36-5.46,13.99-16.19,20.9
		C219.73,69.49,212.07,72.81,204.03,75.07z M200.17,71.53c1.43-4.94,4.72-12.83,8.58-20.21c-1.2,0.63-2.46,1.23-3.69,1.92
		c-12.71,6.83-18.61,14.86-16.87,18.35c0.72,1.42,2.61,1.51,4.19,1.42C194.87,72.84,197.5,72.33,200.17,71.53z M216.18,47.99
		c-0.78,1.4-1.64,2.91-2.56,4.62c-3.36,6.22-5.95,11.73-7.83,16.99c6.26-2.51,12.57-6.06,18.26-9.69
		c9.69-6.16,14.79-13.95,14.44-17.26C229.64,43.84,222.97,45.34,216.18,47.99z M220.79,40.38c-0.84,1.32-1.73,2.7-2.66,4.31
		c6.38-1.83,12.75-2.9,19.91-3.23c-1.63-2.57-7.46-3.23-12.55-2.33C224.17,39.36,222.88,39.73,220.79,40.38z"/>
	<path class="st1" d="M270.94,33.28c-3.17,5.67-6.95,14.26-6.83,15.22c0.02,0.14,0.09,0.22,0.27,0.19
		c0.96-0.17,7.36-7.72,12.37-14.65c0.26-0.37,0.86-0.15,0.69,0.21c-0.77,1.5-2.51,4.38-4.96,8.04c-2.45,3.67-6.97,9.66-8.33,9.9
		c-1.73,0.3-5.35-2.15-5.65-3.88c-0.26-1.46,2.4-6.61,4.12-10.15c-4.27,6.61-9.68,14.5-12.07,16.33c-0.13,0.07-0.17,0.08-0.22,0.08
		c-1.82,0.32-5.97-2.23-6.35-4.41c-0.3-1.68,3.89-9.59,7.59-16.76c0.56-1.08,1.12-2.45,1.17-3.21c0.02-0.66-0.43-0.86-0.9-0.87
		c0.08-0.06,1.03-0.51,2.34,0.24c2.87,1.65,3.5,3.13,3.57,3.78c0.02,0.09-0.01,0.19-0.04,0.29c0,0-2.59,4.21-3.94,6.65
		c-2.77,5.03-4.6,9.53-4.44,10.44c0.03,0.18,0.17,0.44,0.44,0.39c1.54-0.27,13.95-15.53,16.42-20.1c0.57-1.04,1.28-2.57,0.98-3.73
		c-0.06-0.36-0.24-0.57-0.54-0.66c-0.04,0.01,1.02-0.32,2.36,0.33c2.36,1.18,3.45,2.81,3.52,3.46c0.02,0.09-0.01,0.19-0.04,0.29
		C272.46,30.71,271.75,31.77,270.94,33.28z"/>
	<path class="st1" d="M293.47,43.32c0.02,0.14,0.09,0.22,0.27,0.19c0.95-0.17,7.36-7.72,12.37-14.65c0.26-0.37,0.86-0.15,0.69,0.21
		c-0.77,1.5-2.51,4.38-4.96,8.04c-2.45,3.67-6.97,9.66-8.33,9.9c-0.64,0.11-2.01-0.25-2.83-0.63c-1.53-0.71-2.64-1.69-2.75-2.56
		c-0.04-0.23,0-0.52,0.05-0.76c0.27-1.41,1.21-4.01,2.54-7.1l-1.93,2.59c-4.22,5.57-8.82,10.83-10.6,11.15
		c-1.27,0.22-5.53-1.88-6.09-3.99c-0.21-0.9-0.05-2.15,0.41-3.54c2.06-6.41,10.41-17.54,16.57-19.51c0.4-0.12,0.49-0.13,0.54-0.14
		c4.27-0.75,6.12,0.66,6.55,1.8c2.98-6.24,6.29-12.97,7.38-16.35c0.67-2.04,0.82-3.61-0.07-3.88c-0.04,0.01,0.92-0.35,2.23,0.17
		c1.87,0.75,3.62,2.69,3.78,3.65c0.02,0.09-0.01,0.19-0.04,0.29l-8.84,18.43C300.21,27.04,293.13,41.41,293.47,43.32z M276.82,46.16
		c0.02,0.14,0.1,0.31,0.38,0.26c1.54-0.27,11.32-8.65,15.12-15.51c0.68-1.48,2.38-5.11,2.22-6.02c-0.1-0.54-0.75-0.8-1.25-0.72
		c-4.95,0.87-12.61,12.77-14.85,17.33C276.99,44.49,276.68,45.67,276.82,46.16z"/>
	<path class="st1" d="M313.45,30.38c6.53-3.63,12.01-5.49,14.91-6.38c0.36-0.11,0.35,0.41,0.14,0.54
		c-2.36,1.26-6.67,2.86-12.27,6.43c2.25,0.54,4.39,1.76,4.62,3.08c0.19,1.09,0.13,2.04-1.62,4.08c-2.99,3.25-8.63,6.63-12.81,7.37
		c-2.95,0.52-6.35-2.25-6.22-3.92c0.19-2.38,5.85-7.22,11.77-10.32c-2.75-0.45-5.81-1.04-6.18-3.13
		c-0.67-3.77,7.7-10.31,12.88-11.22c2.73-0.48,5.62,1.59,5.91,3.22c0.38,2.14-3.76,4.74-5.08,4.97c-0.27,0.05-0.57-0.04-0.46-0.2
		c0.67-0.96,3.49-4.41,3.33-5.27c-0.03-0.18-0.13-0.21-0.49-0.15c-1.96,0.34-5.18,2.23-7.54,4.28c-2.97,2.54-4.39,5.13-3.74,5.63
		C311.2,29.83,312.72,30.22,313.45,30.38z M316.02,32.45c-0.07-0.41-0.19-0.53-1.05-0.66c-1.47,0.96-2.93,1.97-4.5,3.18
		c-5,3.83-7.97,7.69-7.88,8.23c1,0.34,8.16-4.77,10.24-6.54C313.56,36.07,316.26,33.82,316.02,32.45z"/>
</g>
<rect x="67.39" y="58.45" class="st2" width="57.81" height="0.47"/>
<g transform="translate(0.000000,1277.000000) scale(0.100000,-0.100000)">
	<path class="st3" d="M3168.09,12267.41c-4.45-8.63-13.32-45.56-15.29-63.81l-0.33-3.04l-2.02,2.13c-2.49,2.63-3.09,2.45-5.3-1.77
		c-3.05-5.86-5.16-14.35-5.35-21.76c-0.14-4.41-0.14-4.5-1.08-3.86c-2.49,1.73-4.97,2.95-5.39,2.72
		c-2.11-1.27-4.74-24.21-3.84-33.47c0.23-2.68,0.19-3.82-0.14-3.63c-0.23,0.14-1.73,1.14-3.28,2.18c-3.75,2.54-6.61,3.86-7.46,3.54
		c-1.22-0.46-1.78-3.63-1.73-10.63c0-9.72,1.64-19.21,4.45-25.98c0.66-1.54,1.13-2.86,1.08-2.91c-0.05-0.09-2.53,1.41-5.44,3.27
		c-7.92,5.04-8.58,5-9.14-0.77c-0.89-8.77,1.64-22.53,5.35-28.98c0.8-1.36,1.31-2.54,1.22-2.68c-0.14-0.09-1.69,0.59-3.42,1.54
		c-5.58,3-6.42,3.36-7.74,3.36c-1.92,0-2.39-1.32-2.11-5.86c0.42-7.13,4.13-18.8,8.77-27.84c1.5-2.95,2.53-5.36,2.25-5.36
		s-2.2,1-4.31,2.23c-6.71,3.86-6.8,3.91-7.97,2.82c-0.89-0.91-0.98-1.45-0.94-6.31c0-4.54,0.23-5.86,1.31-9.17
		c2.2-6.45,5.67-12.22,10.22-17.03c2.16-2.27,2.25-2.5,1.27-2.5c-0.61,0-2.39,0.32-3.94,0.68c-4.31,1-5.72,0.91-6.66-0.5
		c-0.75-1.13-0.75-1.41,0.05-5.13c1.03-4.91,4.13-12.31,8.06-19.3c1.69-2.95,2.95-5.45,2.86-5.54c-0.05-0.09-1.36,0.59-2.86,1.45
		c-3.66,2.09-5.06,2.36-6.33,1.13c-1.97-1.91-0.98-8.72,2.49-17.03c1.97-4.77,4.59-9.22,8.11-13.76l2.49-3.32h-2.34
		c-2.67,0-5.49-0.95-5.91-2.04c-0.56-1.36,0.84-4.95,5.91-15.44c2.81-5.81,5.25-11.13,5.44-11.81c0.52-2-0.8-1.23-2.2,1.32
		c-0.66,1.18-1.64,2.59-2.2,3.09c-0.84,0.86-1.13,0.91-2.34,0.41c-0.75-0.32-1.97-1.18-2.72-1.91c-1.59-1.59-2.06-1.63-2.06-0.27
		c0,1.82-1.78,7.9-3.47,11.99c-3.09,7.31-8.11,13.76-10.74,13.76c-1.59,0-2.49-1.23-3.14-4.31c-0.66-3.09-0.47-3.36-3.09,3.63
		c-3.56,9.49-8.67,17.49-11.21,17.49c-1.22,0-2.53-1.5-4.45-4.86c-1.36-2.36-1.88-2.45-1.88-0.41c0,3.77-2.2,11.13-4.69,15.62
		c-3.8,6.9-10.6,12.13-12.1,9.31c-0.23-0.45-0.7-2.13-0.98-3.77c-0.33-1.63-0.8-3.63-1.08-4.5l-0.52-1.54l-1.31,3.59
		c-2.91,7.72-9.33,18.21-13.97,22.8c-3.84,3.77-5.06,3.13-6.66-3.45c-0.52-2.32-1.13-4.18-1.31-4.18c-0.14,0-0.7,1.09-1.17,2.41
		c-1.78,5.04-7.74,12.67-13.74,17.71c-6.24,5.18-6.42,5.09-8.11-5.5l-0.56-3.36l-1.27,2.45c-0.7,1.32-1.83,3.22-2.49,4.22
		c-3.84,5.86-13.41,15.44-17.49,17.53c-2.06,1.04-2.2,1.04-2.81,0.27c-0.66-0.91-1.64-5.59-1.64-7.95c0-0.82-0.14-1.45-0.33-1.45
		c-0.23,0-1.55,1.14-2.95,2.54c-6.24,6.22-20.49,16.08-23.16,16.08c-0.47,0-0.89-0.86-1.27-2.68l-0.56-2.63l-3.7,2.82
		c-6.05,4.63-15.33,8.86-19.41,8.86h-1.69l0.33-2.27c0.19-1.23,0.19-2.27,0.05-2.27s-3.56,2.13-7.64,4.72
		c-16.97,10.81-38.49,21.94-45.2,23.39c-2.63,0.59-2.77-0.14-0.75-4.22c4.03-8.22,21.01-31.57,31.18-42.83
		c2.39-2.68,2.48-2.86,1.36-2.86c-0.61,0-1.83-0.14-2.63-0.27c-1.41-0.27-1.5-0.41-1.22-1.73c0.47-2.13,3.19-7.58,5.44-10.76
		c1.08-1.54,3.52-4.41,5.44-6.31c1.88-1.95,3.42-3.63,3.42-3.82c0-0.14-0.33-0.27-0.75-0.27c-1.88,0-4.41-1.09-4.41-1.86
		c0-2.45,13.93-17.21,20.82-22.03l1.36-0.95l-3.24-0.77c-4.27-1-6.75-2.09-6.75-2.91c0-3.82,17.02-16.35,25.98-19.17
		c2.2-0.68,1.83-0.95-3-2.04c-4.59-1.04-6.89-1.95-7.22-2.82c-0.42-1,5.06-6.31,9.99-9.72c4.74-3.27,10.36-6.04,13.93-6.81
		c1.36-0.32,2.39-0.68,2.3-0.91c-0.14-0.18-1.97-0.91-4.13-1.54c-6.61-2.13-7.08-3.72-2.02-7.22c6.1-4.22,15.8-8.49,23.87-10.49
		c4.92-1.18,5.02-1.04-2.02-3.22c-4.55-1.41-4.88-1.63-4.5-3.09c0.47-1.77,2.81-4.09,6.24-6.18c5.58-3.45,12.14-5.31,19.51-5.54
		c2.25-0.09,4.08-0.23,4.08-0.36c0-0.14-0.8-0.73-1.73-1.36c-5.11-3.32-5.91-4.95-3.38-7.04c3.09-2.5,11.25-5.59,19.79-7.49
		c2.49-0.54,4.55-1.09,4.55-1.14c0-0.09-1.36-0.59-3.05-1.14c-4.59-1.5-5.06-3.09-1.64-6.09c3.99-3.5,13.88-7.04,22.46-8.04
		l4.59-0.54l-1.59-2.23c-3.19-4.63-3.24-4.59,15.33-10.08c4.64-1.41,5.49-1.77,5.95-2.82c0.33-0.68,0.52-1.32,0.42-1.41
		c-0.09-0.14-1.41,0.41-2.91,1.13c-4.13,2-9.57,3.77-11.82,3.86c-2.25,0.09-3.09-0.64-2.67-2.36c0.14-0.59,0.42-1.68,0.56-2.45
		l0.28-1.41l-2.06,1.63c-4.74,3.77-12.89,6.36-16.83,5.36c-0.98-0.27-1.97-0.68-2.11-0.95c-0.19-0.23,0.42-1.68,1.36-3.18
		c0.94-1.5,1.69-2.82,1.69-2.91s-1.55,0.5-3.38,1.36c-4.55,2.04-11.07,3.86-15.19,4.18c-3.05,0.23-3.42,0.18-3.89-0.68
		c-0.42-0.73-0.23-1.36,0.89-3.45c0.8-1.36,1.41-2.59,1.41-2.72c0-0.09-1.22,0.32-2.67,0.91c-6.1,2.36-18.43,2.82-18.43,0.64
		c0-0.18,0.94-1.73,2.11-3.41c1.36-2,1.78-2.95,1.27-2.73c-5.67,2.13-18.24,3.04-21.29,1.5c-1.22-0.59-1.03-1.32,0.75-3.95
		l1.64-2.32h-4.08c-4.5,0-13.41-1.04-15.85-1.82c-1.78-0.59-1.92-0.91-0.84-2.54c0.42-0.59,0.7-1.18,0.61-1.23
		c-0.09-0.09-2.06-0.41-4.31-0.73c-6-0.77-12.52-3.32-12.52-4.86c0-0.32,0.47-0.91,1.03-1.27c1.22-0.86,0.98-0.95-3.84-1.63
		c-8.58-1.18-25.88-5.36-31.88-7.68c-3.84-1.5-4.08-2.32-1.08-3.59c4.92-2.04,19.36-5.13,31.32-6.72c3.38-0.45,6.19-0.86,6.28-0.95
		s-0.14-0.5-0.56-0.95c-0.47-0.45-0.8-1.04-0.8-1.32c0-1.41,9.61-4.22,14.39-4.22c1.59,0,2.95-0.09,2.95-0.18
		c0-0.14-0.42-0.95-0.98-1.82l-0.98-1.64l1.31-0.45c2.25-0.82,8.21-1.45,14.54-1.5l6.19-0.09l-1.27-1.82
		c-3-4.27-2.53-4.77,4.27-4.77c5.3,0,10.64,0.82,14.58,2.27l2.25,0.86l-0.66-1c-2.06-3.18-3.19-5.4-3-6
		c0.89-2.18,12.75-0.86,20.21,2.27c0.75,0.32,0.66-0.05-0.61-2.18c-1.69-2.86-1.64-4.18,0.19-4.5c2.91-0.54,11.72,1.77,17.72,4.72
		l3.7,1.77l-1.78-3c-1.55-2.77-1.64-3.09-0.98-3.72c1.08-1.04,5.67-0.91,9.42,0.32c2.77,0.86,6.33,2.91,9.85,5.5
		c1.22,0.95,1.31,0.95,1.08,0.14c-0.75-2.54-0.84-3.91-0.33-4.5c1.31-1.54,6.14-0.36,13.41,3.36c4.36,2.23,4.41,2.23,3.7,0.95
		c-0.94-1.73-0.89-3.45,0.05-3.82c3.09-1.14,11.68,1.73,17.16,5.77l2.16,1.59l0.28-1.73c0.33-2.04,1.31-2.77,3.14-2.27
		c0.84,0.23,1.59,0.18,2.11-0.23c0.7-0.5,0.42-0.64-2.39-1.09c-3.84-0.68-7.17-2.23-8.91-4.22l-1.27-1.45l1.03-0.82
		c0.56-0.45,1.45-0.82,1.92-0.82c1.5,0,0.98-0.77-0.75-1.09c-2.16-0.41-9.66-4.09-10.78-5.27c-1.13-1.18-0.56-2.23,1.55-2.91
		l1.5-0.5l-3.42-1.68c-3.66-1.86-7.83-5.27-7.83-6.45c0-0.5,0.7-0.91,2.11-1.27c1.92-0.5,2.86-1.27,1.59-1.27
		c-1.97,0-11.53-7.45-11.11-8.67c0.09-0.32,1.03-0.86,2.11-1.18l1.88-0.64l-3.24-3.04c-5.39-5.04-7.46-8.27-5.25-8.27
		c0.94,0,0.84-0.23-1.27-2.82c-3.38-4.18-4.83-8.08-2.95-8.08c0.66,0,0.7-0.09,0.14-0.82c-0.38-0.5-2.67-3.45-5.11-6.58
		c-5.06-6.54-9.19-12.67-9.61-14.49c-0.28-1.09-0.19-1.27,0.61-1.27c1.41,0,12.14,5.31,18.61,9.22c4.88,2.95,5.63,3.32,5.77,2.54
		c0.28-1.63,3.94-0.64,8.67,2.36c1.45,0.95,2.67,1.45,2.67,1.18c0.05-1.5,0.8-1.77,2.39-0.95c1.92,0.95,6.05,3.86,8.44,5.95
		l1.73,1.5l0.52-2.04c0.28-1.13,0.8-2.04,1.17-2.04c1.55,0,7.36,5.59,9.52,9.13l0.84,1.36l0.47-2.18c0.33-1.5,0.75-2.23,1.31-2.32
		c1.13-0.23,6.85,5.4,8.16,8.04l1.03,2l0.38-1.5c0.61-2.27,1.69-2.72,3.24-1.36c1.59,1.41,4.5,5.72,5.86,8.67
		c1.08,2.23,1.83,2.54,1.83,0.73c0-0.54,0.23-1.32,0.47-1.68c0.38-0.59,0.61-0.59,1.97,0.14c2.16,1.14,4.64,4.81,5.53,8.31l0.8,2.95
		l0.8-1.13c0.42-0.64,1.17-1.18,1.69-1.18c1.13,0,3.33,3.04,5.16,7.13c1.13,2.54,1.45,2.91,1.69,2.09c0.42-1.41,1.59-1.68,3-0.68
		c1.45,1.04,4.59,6.81,4.97,9.22c0.23,1.45,0.47,1.77,1.08,1.5c2.58-1,3.09-0.5,5.72,5.81c1.41,3.45,1.92,4.04,2.53,3.09
		c0.14-0.23,0.7-0.45,1.17-0.45c1.41,0,2.72,3.09,3.66,8.45c0.75,4.09,0.94,4.68,1.45,4.09c0.75-0.91,1.64-0.91,2.34-0.09
		c0.28,0.32,1.69,4.95,3.09,10.26c1.41,5.31,2.72,9.81,2.86,9.95c0.19,0.14,0.19-0.73,0.05-2c-0.7-5.45-1.78-17.85-2.11-24.53
		c-0.38-7.13-0.19-12.49,0.84-21.12c1.55-13.81,1.92-17.44,2.58-25.84c0.42-5.18,0.7-12.72,0.61-17.12l-0.14-7.86l3-0.14
		c2.2-0.09,3.05,0.04,3.24,0.5c0.14,0.32,0.09,6.36-0.05,13.4c-0.28,11.49-0.56,15.76-2.16,30.25c-0.28,2.36-0.8,7.27-1.22,10.85
		c-0.8,7.49-0.89,16.17-0.23,23.66c1.13,12.49,2.53,24.53,2.81,24.21c0.19-0.18,1.22-3.32,2.3-6.95c2.86-9.54,5.11-16.03,5.95-17.17
		c0.7-1,2.53-1.41,2.53-0.54c0,0.27,0.19,0.45,0.42,0.45s0.56-1.09,0.7-2.36c0.7-5,1.78-8.67,2.95-9.81c1.03-1,1.22-1.04,2.2-0.41
		c1.08,0.68,1.08,0.68,2.86-3.54c0.98-2.36,2.16-4.68,2.67-5.22c0.8-0.82,0.98-0.86,2.2-0.23l1.36,0.64l0.28-1.68
		c0.38-2.18,2.58-6.72,4.22-8.58c1.5-1.73,2.77-1.91,3.75-0.5c0.47,0.64,0.75,0.77,0.75,0.36c0-0.32,0.84-2.32,1.88-4.41
		c2.34-4.68,3.75-5.59,5.39-3.59l1.08,1.32l0.33-1.91c0.75-4.22,5.11-10.31,7.17-9.95c0.47,0.09,0.94,0.95,1.27,2.18l0.52,2.04
		l0.56-1.63c0.75-2.04,4.45-7.95,6.1-9.58c1.73-1.82,2.77-1.63,3.42,0.54l0.56,1.82l1.41-2.36c1.59-2.72,6.47-7.63,7.55-7.63
		c0.89,0,1.17,0.5,1.59,2.82l0.33,1.91l1.55-2.32c1.97-3,7.88-8.4,8.91-8.22c0.52,0.09,0.98,0.86,1.27,2.04l0.47,1.91l3.24-2.63
		c3.84-3.18,8.02-5.68,8.67-5.27c0.28,0.14,0.52,0.68,0.52,1.23c0,0.86,0.09,0.86,1.64-0.27c2.34-1.77,7.5-4,8.77-3.82
		c0.7,0.09,1.03,0.41,0.94,0.95c-0.09,0.41-0.05,0.77,0.09,0.77s2.02-1.09,4.13-2.45c7.41-4.68,18.61-10.26,20.54-10.26
		c2.06,0-3.94,9.67-12.1,19.53c-2.58,3.13-2.77,3.45-1.88,3.77c0.75,0.27,0.89,0.59,0.61,1.59c-0.42,1.73-2.39,4.86-4.27,6.9
		c-1.78,1.86-1.92,2.27-0.94,2.27c1.17,0,1.36,0.86,0.47,2.18c-0.42,0.68-2.58,3-4.78,5.18c-3.38,3.36-3.84,4-3.09,4.27
		c2.25,0.68,3,1.14,3,1.73c0,1.04-5.81,5.91-9,7.54l-2.91,1.5l2.2,0.64c1.64,0.45,2.2,0.86,2.2,1.5c0,1.18-4.36,4.77-7.92,6.49
		l-3,1.41l1.5,0.59c1.97,0.82,2.3,1.77,0.98,3.09c-1.22,1.27-6.99,4.09-10.03,4.86c-2.06,0.54-2.91,1.27-1.45,1.27
		c1.08,0,3.05,1,3.05,1.59c0,0.77-2.81,3.18-4.97,4.22c-1.08,0.54-3.38,1.18-5.11,1.5c-2.49,0.41-3,0.64-2.34,0.95
		c0.42,0.27,1.41,0.36,2.11,0.23c1.59-0.32,2.81,0.77,2.81,2.54c0,0.68,0.14,1.23,0.28,1.23c0.19,0,1.78-0.95,3.56-2.09
		c4.5-2.91,9.71-4.86,13.22-4.91c3.47-0.04,4.17,0.68,2.95,3.09c-0.42,0.91-0.7,1.63-0.61,1.63c0.05,0,2.2-1.04,4.78-2.27
		c5.25-2.63,8.86-3.77,11.07-3.54l1.55,0.14l-0.09,2.86l-0.05,2.82l1.92-1.63c4.59-3.77,13.13-6.59,16.93-5.59
		c2.06,0.54,2.11,1.27,0.28,4.27c-0.75,1.27-1.41,2.36-1.41,2.5s1.59-0.5,3.56-1.41c6.61-3.13,15.47-5.31,17.91-4.45
		c1.36,0.5,1.31,1.86-0.19,4.36c-0.66,1.14-1.13,2.09-1.03,2.23c0.14,0.09,1.08-0.23,2.16-0.73c3.19-1.5,7.97-2.41,13.13-2.45
		c6.52-0.05,6.71,0.32,2.67,6.31c-0.94,1.32-0.94,1.32,0,0.95c4.74-1.82,17.07-3.22,20.58-2.36c1.22,0.27,1.69,1.86,0.84,2.82
		c-0.23,0.23-0.84,1.14-1.41,2l-0.98,1.59l6.05,0.05c6.75,0.09,13.6,0.86,14.82,1.73c0.7,0.54,0.7,0.68,0,2
		c-0.42,0.77-0.75,1.5-0.75,1.68c0,0.14,1.36,0.23,2.95,0.23c4.78,0,13.08,2.45,14.21,4.13c0.19,0.32-0.09,0.91-0.66,1.36
		c-0.56,0.41-1.03,0.86-1.03,1c0,0.09,1.55,0.36,3.42,0.5c4.5,0.45,19.97,3.18,25.6,4.59c7.55,1.86,11.3,3.27,11.3,4.31
		c0,1.54-19.93,6.99-33.99,9.31c-6.38,1.04-6.19,0.95-4.97,2.23l1.03,1.09l-1.22,0.91c-2.44,1.86-10.41,4.13-14.44,4.18h-1.83
		l0.98,1.54c0.8,1.18,0.84,1.63,0.38,2c-0.98,0.82-8.39,1.95-14.82,2.27l-6.05,0.32l1.69,2.68c1.55,2.45,1.64,2.68,0.89,3.22
		c-2.11,1.45-13.36,1.09-19.22-0.68c-1.55-0.5-2.91-0.82-2.95-0.77c-0.09,0.05,0.7,1.27,1.73,2.77c3,4.32,2.58,4.81-4.17,4.81
		c-4.36,0-10.08-1-13.13-2.27l-2.02-0.86l1.41,2.41c2.63,4.45,1.69,5.36-4.64,4.45c-4.83-0.68-11.02-2.73-16.55-5.45
		c-0.19-0.09,0.42,1.09,1.41,2.63c1.97,3.22,1.78,4.09-0.84,4.63c-4.22,0.86-11.63-1.63-17.07-5.72c-1.45-1.14-1.73-1.23-1.5-0.5
		c0.23,0.45,0.52,1.73,0.66,2.82c0.23,1.73,0.14,1.95-0.89,2.45c-1.64,0.68-5.86-0.41-11.53-3c-2.44-1.14-4.59-2.04-4.83-2.04
		c-0.19,0,0,0.64,0.42,1.36c0.7,1.18,1.45,1.59,5.49,2.77c10.88,3.23,14.77,4.5,15.9,5.22c1.73,1.04,1.59,2.77-0.42,5.36l-1.69,2.09
		h2.11c3.05,0,10.74,1.54,14.82,2.95c11.96,4.22,16.13,9.27,9.28,11.36c-1.36,0.41-2.81,0.86-3.19,1c-0.38,0.09,2.06,0.86,5.39,1.73
		c9.24,2.27,16.6,5.22,18.9,7.63c1.73,1.77,1.22,2.95-2.39,5.54l-3.19,2.27l4.59,0.36c9.57,0.68,17.91,3.82,22.74,8.54
		c2.67,2.59,3.28,3.95,2.16,4.81c-0.33,0.27-2.67,1.14-5.2,1.95c-2.49,0.77-4.45,1.63-4.27,1.86c0.14,0.23,0.52,0.41,0.84,0.41
		c1.45,0,8.91,2.36,13.64,4.32c9.33,3.86,16.18,8.31,16.18,10.45c0,1.45-1.36,2.27-5.95,3.63c-2.16,0.64-3.89,1.32-3.89,1.5
		c0,0.23,1.22,0.59,2.72,0.91c3.19,0.64,8.91,3.41,13.18,6.31c4.45,3.09,9.05,7.09,9.99,8.63c0.8,1.32,0.8,1.41,0,2.09
		c-0.47,0.41-2.95,1.27-5.49,1.91c-2.58,0.64-5.02,1.27-5.39,1.41c-0.38,0.14,1.03,0.91,3.14,1.73c2.11,0.82,5.63,2.59,7.88,3.95
		c7.5,4.54,16.18,12.13,16.18,14.17c0,1.09-1.69,1.95-5.77,2.95c-2.02,0.5-3.8,1-3.89,1.14c-0.14,0.09,0.33,0.54,0.94,0.95
		c5.91,3.72,20.91,19.58,20.91,22.07c0,0.54-0.7,0.91-2.58,1.36c-1.41,0.32-2.58,0.73-2.58,0.86c0,0.14,1.17,1.36,2.63,2.72
		c1.41,1.32,3.66,3.77,4.92,5.45c2.77,3.5,6.52,10.58,6.66,12.54c0.09,1.32,0.05,1.36-2.34,1.5c-1.36,0.09-2.49,0.23-2.49,0.36
		c0,0.14,1.31,1.68,2.95,3.5c6.61,7.4,18.38,22.66,24.62,32.11c3.47,5.18,7.6,12.76,7.6,13.94c0,3.5-26.54-9.49-49.19-24.03
		l-6.28-4.04l0.33,2.32c0.42,2.91-0.09,3.13-4.22,2.04c-5.67-1.5-13.69-5.72-17.77-9.4c-1.17-1-2.2-1.77-2.3-1.68
		c-0.05,0.09-0.38,1.36-0.7,2.82c-0.42,1.95-0.8,2.59-1.41,2.59c-2.11,0-15.47-9.27-22.13-15.31c-1.97-1.82-3.7-3.32-3.8-3.32
		c-0.14,0-0.38,1.5-0.56,3.27c-0.38,4.04-1.5,6.54-2.86,6.36c-1.69-0.27-4.6-2.5-9.38-7.13c-5.44-5.22-8.86-9.49-11.44-14.26
		l-1.83-3.36l-0.56,4.04c-1.03,7.63-1.78,9.04-4.08,7.86c-1.97-1-9.75-8.4-12.38-11.72c-2.44-3.13-6.05-9.77-6.05-11.13
		c0-1.77-0.89-0.09-1.41,2.77c-1.13,5.77-2.44,7.68-4.59,6.54c-4.08-2.13-13.03-15.67-16.27-24.71c-0.7-1.95-1.41-3.45-1.5-3.32
		c-0.14,0.09-0.61,2-1.13,4.22c-0.47,2.18-0.98,4.45-1.13,5.04c-0.19,0.68-0.61,1-1.45,1c-1.88,0-3.56-1.09-6.47-4.09
		c-4.41-4.68-8.11-13.04-9-20.53c-0.19-1.45-0.47-2.5-0.66-2.41c-0.19,0.14-1.22,1.64-2.3,3.41c-2.16,3.54-3.14,3.95-5.35,2.27
		c-2.63-2-7.78-11.67-10.41-19.53c-0.42-1.36-0.98-2.68-1.17-2.86s-0.56,0.82-0.89,2.23c-0.52,2.68-1.55,4.27-2.72,4.27
		c-4.45,0-12.38-13.31-14.3-23.98l-0.56-3.22l-2.02,1.82c-2.95,2.63-4.41,2.5-6.19-0.59c-1.59-2.82-2.25-3.54-2.91-3.54
		c-0.89,0,0,2.23,4.69,11.81c5.16,10.45,6.75,14.35,6.52,15.94c-0.19,1.5-2.81,2.68-5.91,2.68h-2.44l2.49,3.32
		c3.52,4.54,6.14,8.99,8.11,13.76c3.47,8.31,4.45,15.13,2.49,17.03c-1.27,1.23-2.95,0.95-6.47-1.13c-1.45-0.86-2.67-1.5-2.77-1.41
		s1.08,2.36,2.63,5.09c6.28,11.04,9.89,21.53,8.49,24.71c-0.47,1.13-0.8,1.32-2.49,1.32c-1.03-0.04-3.19-0.32-4.74-0.68
		c-4.64-1.09-4.92-0.95-2.72,1.27c4.5,4.59,8.21,10.54,10.5,17.12c1.41,3.91,1.55,4.86,1.59,9.63c0,4.91-0.09,5.4-1.03,6.31l-1.03,1
		l-5.39-3c-4.92-2.77-6.38-3.41-6.38-2.82c0,0.09,0.61,1.18,1.31,2.36c6.47,10.76,12.24,31.43,9.94,35.61
		c-0.8,1.41-2.77,1.04-7.08-1.36c-4.03-2.23-6.28-3.18-6-2.5c0.09,0.23,0.84,1.63,1.64,3.13c2.72,5,4.36,11.76,5.11,21.03
		c0.38,4.5-0.09,10.17-0.94,11.26c-0.84,1.18-2.3,0.59-8.25-3.18c-2.91-1.86-5.39-3.36-5.44-3.27c-0.05,0.04,0.52,1.68,1.31,3.68
		c2.77,6.9,4.22,15.62,4.22,25.66c0,6.72-0.52,9.72-1.73,10.17c-0.94,0.36-4.36-1.36-8.06-4c-1.59-1.14-2.95-2.09-3.05-2.09
		s0.05,1.77,0.23,4c0.89,9.27-1.73,32.2-3.84,33.47c-0.42,0.27-2.86-1-5.58-2.86c-1.13-0.77-1.13-0.77-0.8,0.5
		c0.38,1.54-0.42,9.81-1.36,13.67c-1.55,6.4-5.16,14.58-6.75,15.17c-0.42,0.14-1.41-0.54-2.67-1.86l-1.97-2.09l-0.56,4.41
		c-1.27,10.13-5.39,30.43-8.72,43.47c-2.95,11.4-6.8,21.57-8.16,21.57C3169.68,12270,3168.84,12268.82,3168.09,12267.41z"/>
</g>
<g transform="translate(0.000000,1280.000000) scale(0.100000,-0.100000)">
	<path class="st1" d="M3176.01,12059.92c-0.86-0.28-1.22-1.38-5.36-15.93c-2.3-8.05-4.19-14.67-4.25-14.71
		c-0.04-0.06-7.9,2.42-17.49,5.47c-9.57,3.07-17.41,5.55-17.41,5.55c-0.21-0.24-8.29-29.3-8.17-29.4c0.08-0.1,2.09-0.77,4.46-1.52
		c8.13-2.58,9.63-3.35,10.54-5.49c0.63-1.44,0.34-3.88-0.98-8.78c-2.03-7.38-28.53-100.53-29.39-103.29
		c-1.38-4.37-2.18-5.97-3.43-6.79c-1.68-1.1-3.46-0.83-11.63,1.77c-2.49,0.79-4.57,1.4-4.59,1.36c-0.04-0.04-1.89-6.56-4.15-14.51
		c-2.24-7.92-4.11-14.53-4.15-14.63c-0.04-0.12,7.33-2.58,17.36-5.79c10.81-3.43,17.41-5.65,17.41-5.81c0-0.12-1.82-6.6-4.02-14.38
		c-2.89-10.16-4.02-14.42-4.02-15.14c0-1.73,0.11-1.79,10.37-5.06c9.7-3.11,9.87-3.15,10.93-2.11c0.61,0.61,0.38-0.1,5.3,17.21
		c1.89,6.71,3.48,12.29,3.52,12.41c0.06,0.16,1.84-0.33,5.22-1.4c2.81-0.89,5.15-1.65,5.17-1.65c0.02-0.02-1.84-6.66-4.13-14.77
		c-3.96-13.92-4.17-14.73-3.9-15.24c0.78-1.42,0.5-1.3,10.12-4.37c5.03-1.61,9.36-2.93,9.59-2.93s0.78,0.16,1.24,0.39l0.82,0.39
		l4.21,14.87l4.21,14.87l0.57-0.12c0.31-0.06,2.05-0.43,3.83-0.81c7.16-1.54,11.58-2.05,17.89-2.05c3.67,0.02,5.42,0.1,7.08,0.37
		c13.36,2.19,24.05,8.55,32.07,19.1c7.33,9.65,11.48,22.74,11.12,34.99c-0.13,4.21-0.48,6.83-1.4,10.63
		c-2.35,9.75-7.04,17.05-15.46,24.01l-1.3,1.1l1.78,0.39c2.74,0.59,7.27,2.24,9.84,3.6c4.44,2.32,7.86,4.96,11.6,8.92
		c9.41,10,14.22,24.5,12.71,38.3c-0.61,5.46-1.82,9.94-4.02,14.65c-5.65,12.21-15.35,20.46-31.5,26.82
		c-1.63,0.63-2.97,1.18-2.99,1.2c-0.02,0.02,1.88,6.81,4.23,15.05l4.27,15.04l-0.44,0.96c-0.25,0.53-0.54,1-0.63,1.06
		c-0.1,0.08-4.42,1.48-9.63,3.15l-9.43,3.03l-0.94-0.55l-0.94-0.55l-4.23-14.91c-2.33-8.19-4.32-14.93-4.46-14.97
		c-0.17-0.06-10.35,3.09-10.51,3.25c-0.04,0.02,1.82,6.64,4.11,14.69c3.6,12.68,4.15,14.75,4.06,15.56
		c-0.19,1.65-0.31,1.71-10.22,4.86C3178.42,12059.8,3176.87,12060.21,3176.01,12059.92z M3188.27,11985.62
		c17.68-5.65,22.64-8.03,25.93-12.39c2.47-3.27,3.52-7.64,2.97-12.21c-1.17-9.37-5.86-15.69-13.13-17.72
		c-1.61-0.45-2.35-0.53-4.69-0.55c-5.34-0.04-9.28,0.87-23.54,5.45c-4.55,1.46-6.6,2.19-6.58,2.38c0.02,0.16,2.41,8.72,5.34,19.02
		c3.27,11.52,5.4,18.69,5.53,18.65C3180.22,11988.2,3183.89,11987.02,3188.27,11985.62z M3170.51,11916.09
		c10.26-3.29,13.2-4.37,16.94-6.28c3.41-1.75,5.51-3.25,7.39-5.24c4.19-4.47,5.74-9.92,4.78-16.76c-0.59-4.29-2.33-9.14-4.48-12.56
		c-1.26-1.99-3.85-4.73-5.76-6.12c-5.43-3.94-9.89-4.57-18.73-2.7c-3.04,0.65-4.63,1.12-13.51,3.98c-7.14,2.3-8.5,2.84-8.84,3.6
		c-0.48,1.06,0.1,3.33,6.93,27.47c2.7,9.51,4.96,17.39,4.99,17.55C3160.33,11919.39,3159.57,11919.61,3170.51,11916.09z"/>
</g>
</svg>
